<svg xmlns="http://www.w3.org/2000/svg" width="48.016" height="47.93" viewBox="0 0 48.016 47.93"><defs><radialGradient id="a" cx="50%" cy="8.372%" r="84.452%" fx="50%" fy="8.372%" gradientTransform="matrix(0 1 -.9982 0 .584 -.416)"><stop offset="0%" stop-color="#2E4961"/><stop offset="100%" stop-color="#041C32"/></radialGradient><linearGradient id="b" x1="50%" x2="50%" y1="21.348%" y2="86.706%"><stop offset="0%" stop-color="#818C96" stop-opacity="0"/><stop offset="100%"/></linearGradient></defs><g fill="none" fill-rule="evenodd"><rect width="48" height="48"/><path fill="url(#a)" fill-rule="nonzero" stroke="url(#b)" d="M23.6162406,0.599704092 C23.8298251,0.502997582 24.066205,0.47663771 24.2922159,0.520628742 L42.5366264,9.79785573 C42.7631533,9.90982933 42.9349154,10.10574 43.017344,10.3413271 L47.4909145,30.561713 C47.5491247,30.8147693 47.5063383,31.0788169 47.3747187,31.2989676 L34.8124255,47.0515276 C34.6461311,47.2531959 34.4111246,47.3836345 34.1552824,47.4197004 L14.0430737,47.4296498 C13.759548,47.4268798 13.4913623,47.3086266 13.2986502,47.1054018 L0.712130263,31.341713 C0.551681459,31.1364361 0.478656482,30.8780703 0.505407923,30.6220477 L5.10687501,10.45539 C5.16047183,10.2077444 5.30933063,9.9929576 5.51865618,9.85569747 Z"/><path fill="#D5EA48" fill-rule="nonzero" d="M29.9605493,18.3187607 L29.9605493,18.3187607 C29.9141952,18.3187607 29.8678411,18.3187607 29.8678411,18.2724065 C29.8678411,18.2260524 29.7751329,18.2260524 29.6824246,18.2260524 C29.4970081,18.1796983 29.3115916,18.1796983 29.1261751,18.1796983 C29.0334669,18.1796983 28.9407586,18.1796983 28.8480504,18.1333442 L28.8016962,18.1333442 C28.2918009,18.08699 27.7355514,17.9942818 27.225656,17.8552194 C27.0865936,17.8088653 26.9475313,17.6698029 26.9011771,17.5307405 C26.9475313,17.5307405 26.9011771,17.5307405 26.9011771,17.5307405 L26.9011771,17.5307405 L26.5303441,17.4380323 C26.7157606,16.0937627 26.6230524,14.703139 26.3449276,13.3588693 C26.0204488,12.0145997 25.4641993,10.7166843 24.7225333,9.55783115 L25.000658,9.2797064 L25.000658,9.2797064 L25.000658,9.23335228 C25.000658,9.09428991 25.0470122,8.90887341 25.1397204,8.81616516 C25.5569075,8.44533217 25.9740947,8.16720742 26.4376359,7.88908267 L26.4376359,7.88908267 C26.5303441,7.84272855 26.6230524,7.79637442 26.7157606,7.7500203 C26.9011771,7.65731205 27.0402395,7.5646038 27.225656,7.47189555 C27.2720101,7.42554143 27.3183643,7.42554143 27.3647184,7.37918731 C27.4110725,7.33283318 27.3647184,7.33283318 27.3647184,7.28647906 L27.3647184,7.28647906 C27.7819055,6.96200019 27.8746138,6.40575069 27.5501349,5.98856357 C27.4110725,5.80314708 27.1329478,5.6640847 26.9011771,5.6640847 C26.6694065,5.6640847 26.4376359,5.75679295 26.2522194,5.89585533 L26.2522194,5.89585533 L26.2058653,5.94220945 C26.1595112,5.98856357 26.113157,6.0349177 26.0668029,6.0349177 C25.9277405,6.17398007 25.7886782,6.31304244 25.6959699,6.45210482 C25.6496158,6.54481307 25.5569075,6.59116719 25.5105534,6.63752132 L25.5105534,6.63752132 C25.1860745,7.00835431 24.7688874,7.37918731 24.3517003,7.65731205 C24.2589921,7.70366618 24.1662838,7.7500203 24.0735756,7.7500203 C24.0272214,7.7500203 23.9345132,7.7500203 23.8881591,7.70366618 L23.8418049,7.70366618 L23.4709719,7.9354368 C23.1001389,7.5646038 22.6829518,7.19377081 22.3121188,6.82293781 C20.5970162,5.47866821 18.4647265,4.64429397 16.2860827,4.41252335 L16.2397285,4.04169035 L16.2397285,4.04169035 L16.2397285,4.08804447 C16.1006662,3.99533623 16.054312,3.85627385 16.0079579,3.71721148 C16.0079579,3.20731611 16.0079579,2.69742074 16.1006662,2.14117125 L16.1006662,2.09481713 C16.1006662,2.00210888 16.1470203,1.90940063 16.1470203,1.81669238 C16.1933744,1.63127588 16.1933744,1.44585939 16.2397285,1.26044289 L16.2397285,0.982318141 L16.2397285,0.982318141 C16.2860827,0.518776898 15.9152497,0.0552356538 15.4517084,0.00888152938 C15.1735837,-0.037472595 14.8954589,0.101589778 14.6636883,0.3333604 C14.4782718,0.518776898 14.3855636,0.750547519 14.3855636,0.982318141 L14.3855636,0.982318141 L14.3855636,1.21408876 C14.3855636,1.39950526 14.4319177,1.58492176 14.4782718,1.77033826 C14.5246259,1.8630465 14.5246259,1.95575475 14.5246259,2.048463 L14.5246259,2.09481713 C14.6173342,2.60471249 14.6173342,3.11460786 14.6173342,3.67085736 C14.5709801,3.80991973 14.5246259,3.9489821 14.3855636,4.04169035 L14.3855636,4.1343986 L14.3855636,4.1343986 L14.3392094,4.50523159 C13.8293141,4.55158572 13.3194187,4.64429397 12.7631692,4.73700222 C10.5845254,5.20054346 8.59129801,6.35939657 7.06161191,7.98179092 L6.78348716,7.79637442 L6.73713304,7.79637442 C6.69077891,7.79637442 6.64442479,7.84272855 6.55171654,7.84272855 C6.45900829,7.84272855 6.36630004,7.79637442 6.27359179,7.7500203 C5.85640467,7.42554143 5.43921755,7.05470843 5.11473868,6.68387544 L5.11473868,6.68387544 C5.06838456,6.59116719 4.97567631,6.54481307 4.92932219,6.49845894 C4.79025981,6.35939657 4.69755156,6.2203342 4.55848919,6.08127182 C4.51213507,6.0349177 4.46578094,6.0349177 4.41942682,5.98856357 C4.37307269,5.94220945 4.37307269,5.94220945 4.37307269,5.94220945 L4.37307269,5.94220945 C4.1876562,5.80314708 3.95588557,5.71043883 3.72411495,5.71043883 C3.44599021,5.71043883 3.21421958,5.80314708 3.07515721,6.0349177 C2.79703247,6.45210482 2.88974071,7.00835431 3.26057371,7.33283318 L3.26057371,7.33283318 C3.30692783,7.33283318 3.30692783,7.37918731 3.30692783,7.37918731 C3.30692783,7.37918731 3.39963608,7.47189555 3.44599021,7.47189555 C3.58505258,7.5646038 3.77046908,7.65731205 3.95588557,7.7500203 C4.04859382,7.79637442 4.14130207,7.84272855 4.23401032,7.88908267 L4.23401032,7.88908267 C4.69755156,8.16720742 5.16109281,8.44533217 5.5319258,8.81616516 C5.62463405,8.90887341 5.7173423,9.09428991 5.67098818,9.23335228 L5.67098818,9.18699816 L5.67098818,9.18699816 L5.94911292,9.4651229 C5.9027588,9.55783115 5.85640467,9.60418528 5.81005055,9.69689352 C4.37307269,11.9682456 3.77046908,14.6567848 4.1876562,17.2989699 L3.8168232,17.3916782 L3.8168232,17.3916782 C3.8168232,17.4380323 3.77046908,17.4380323 3.77046908,17.4380323 C3.72411495,17.5770947 3.58505258,17.6698029 3.44599021,17.7625112 C2.93609484,17.9015735 2.42619947,17.9942818 1.86994998,18.0406359 L1.86994998,18.0406359 C1.77724173,18.0406359 1.68453348,18.0406359 1.59182523,18.08699 C1.40640873,18.08699 1.22099224,18.1333442 1.03557574,18.1333442 C0.989221615,18.1333442 0.94286749,18.1796983 0.850159242,18.1796983 C0.803805117,18.1796983 0.803805117,18.1796983 0.757450993,18.2260524 L0.757450993,18.2260524 C0.247555625,18.3187607 -0.0769232458,18.7823019 0.015785003,19.2921973 C0.015785003,19.2921973 0.015785003,19.2921973 0.015785003,19.2921973 C0.108493252,19.7093844 0.525680371,19.9875091 0.94286749,19.941155 C1.03557574,19.941155 1.08192986,19.941155 1.17463811,19.8948009 L1.17463811,19.8948009 C1.22099224,19.8948009 1.22099224,19.8948009 1.22099224,19.8484468 C1.22099224,19.8020926 1.36005461,19.8484468 1.40640873,19.8484468 C1.59182523,19.8020926 1.77724173,19.7093844 1.9163041,19.6630303 C2.00901235,19.6166761 2.1017206,19.570322 2.19442885,19.570322 L2.24078297,19.570322 C2.75067834,19.3849055 3.21421958,19.2458431 3.77046908,19.1531349 L3.8168232,19.1531349 C3.95588557,19.1531349 4.09494795,19.199489 4.1876562,19.2921973 C4.23401032,19.2921973 4.23401032,19.3385514 4.23401032,19.3385514 L4.23401032,19.3385514 L4.65119744,19.2921973 C5.34650931,21.424487 6.64442479,23.3250061 8.45223564,24.7156298 C8.86942276,25.0401087 9.24025575,25.3182334 9.703797,25.5500041 L9.47202638,25.8744829 L9.47202638,25.8744829 C9.47202638,25.9208371 9.5183805,25.9208371 9.5183805,25.9208371 C9.61108875,26.0598994 9.61108875,26.2453159 9.56473462,26.3843783 C9.37931813,26.8479195 9.10119338,27.3114608 8.82306863,27.7286479 L8.82306863,27.775002 C8.77671451,27.8677103 8.73036039,27.9140644 8.63765214,28.0067727 C8.54494389,28.0994809 8.45223564,28.2848974 8.31317327,28.4703139 C8.26681914,28.516668 8.26681914,28.5630221 8.22046502,28.6093763 C8.22046502,28.6093763 8.22046502,28.6557304 8.17411089,28.6557304 L8.17411089,28.6557304 C7.94234027,29.1192716 8.12775677,29.6755211 8.54494389,29.9072918 C8.63765214,29.9536459 8.77671451,30 8.86942276,30 C9.24025575,30 9.56473462,29.7682294 9.75015112,29.4437505 L9.75015112,29.4437505 C9.75015112,29.4437505 9.75015112,29.3973964 9.79650525,29.3973964 C9.79650525,29.3510423 9.84285937,29.3046881 9.88921349,29.258334 C9.93556762,29.0729175 10.0282759,28.9338551 10.07463,28.7484386 L10.1673382,28.4703139 L10.1673382,28.4703139 C10.3064006,27.9604185 10.5381712,27.4968773 10.7699419,27.033336 C10.8626501,26.8942737 11.0017125,26.8015654 11.1407749,26.7552113 C11.187129,26.7552113 11.187129,26.7552113 11.187129,26.7088572 L11.187129,26.7088572 L11.3725455,26.3380242 C12.670461,26.8479195 14.0147306,27.0796902 15.4053543,27.0796902 C16.2397285,27.0796902 17.0741028,26.9869819 17.908477,26.7552113 C18.4183724,26.662503 18.9282677,26.4770865 19.391809,26.3380242 L19.5772255,26.662503 L19.5772255,26.662503 C19.6235796,26.662503 19.6235796,26.662503 19.6235796,26.7088572 C19.762642,26.7552113 19.9017044,26.8479195 19.9944126,26.9869819 C20.2261832,27.4505232 20.4579539,27.9140644 20.5970162,28.4239598 L20.5970162,28.4703139 L20.6897245,28.7484386 C20.7360786,28.9338551 20.7824327,29.1192716 20.875141,29.258334 C20.9214951,29.3046881 20.9214951,29.3510423 20.9678492,29.3973964 C20.9678492,29.3973964 20.9678492,29.4437505 21.0142033,29.4437505 L21.0142033,29.4437505 C21.1996198,29.7682294 21.5240987,30 21.8949317,30 C22.0339941,30 22.1267023,29.9536459 22.2657647,29.9072918 C22.4511812,29.8145835 22.6365977,29.629167 22.6829518,29.3973964 C22.7293059,29.1656258 22.7293059,28.9338551 22.6365977,28.7020845 L22.6365977,28.7020845 C22.6365977,28.6557304 22.5902436,28.6557304 22.5902436,28.6557304 C22.5902436,28.6093763 22.5438894,28.5630221 22.4975353,28.516668 C22.4048271,28.3312515 22.3121188,28.1921891 22.1730565,28.0531268 C22.1267023,27.9604185 22.0803482,27.9140644 21.98764,27.8213562 L21.98764,27.7286479 C21.6631611,27.3114608 21.4313905,26.8479195 21.245974,26.3843783 C21.1996198,26.2453159 21.1996198,26.0598994 21.2923281,25.9208371 C21.2923281,25.8744829 21.3386822,25.8744829 21.3386822,25.8744829 L21.3386822,25.8744829 L21.1996198,25.5036499 C23.5636802,24.0666721 25.371491,21.8416741 26.2058653,19.199489 L26.5766983,19.2458431 L26.5766983,19.2458431 C26.6230524,19.2458431 26.6230524,19.199489 26.6230524,19.199489 C26.7157606,19.1067808 26.854823,19.0604266 26.9938854,19.0604266 L27.0402395,19.0604266 C27.5501349,19.1531349 28.0600302,19.2921973 28.5235715,19.4776138 L28.5699256,19.4776138 C28.6626339,19.5239679 28.7553421,19.570322 28.8480504,19.570322 C29.0334669,19.6630303 29.1725292,19.7557385 29.3579457,19.8020926 C29.4042999,19.8020926 29.450654,19.8484468 29.5433622,19.8484468 C29.5897164,19.8484468 29.5897164,19.8484468 29.6360705,19.8948009 L29.6360705,19.8948009 C29.7287787,19.941155 29.7751329,19.941155 29.8678411,19.941155 C30.2850282,19.941155 30.6558612,19.6630303 30.7949236,19.2921973 C30.7485695,18.7823019 30.3777365,18.4114689 29.9605493,18.3187607 L29.9605493,18.3187607 Z M16.5642074,16.8817828 L15.312646,17.4843864 L14.0610847,16.8817828 L13.7366058,15.5375132 L14.6173342,14.4250142 L16.0079579,14.4250142 L16.8886863,15.5375132 L16.5642074,16.8817828 L16.5642074,16.8817828 Z M24.1199297,13.8687647 C24.3517003,14.8422013 24.3980544,15.8156379 24.3053462,16.7890746 L19.9017044,15.5375132 L19.9017044,15.5375132 C19.4845172,15.4448049 19.2527466,15.0276178 19.3454549,14.6104307 C19.391809,14.4713683 19.4381631,14.3786601 19.5308714,14.2859518 L23.0074307,11.1338714 C23.5173261,11.9682456 23.8881591,12.8953281 24.1199297,13.8687647 L24.1199297,13.8687647 Z M21.616807,9.41876878 L17.8157688,12.107308 C17.4912899,12.2927245 17.0277486,12.2463704 16.795978,11.9218915 C16.7032698,11.8291832 16.6569157,11.736475 16.6569157,11.5974126 L16.3787909,6.91564606 C18.4183724,7.14741668 20.2261832,8.02814505 21.616807,9.41876878 L21.616807,9.41876878 L21.616807,9.41876878 Z M13.2267104,7.05470843 L14.1537929,6.86929194 L13.9220223,11.5047044 L13.9220223,11.5047044 C13.9220223,11.9218915 13.5511893,12.2463704 13.1340022,12.2463704 C12.9949398,12.2463704 12.9022316,12.2000162 12.7631692,12.1536621 L8.91577688,9.41876878 C10.1209841,8.25991567 11.6043161,7.42554143 13.2267104,7.05470843 Z M7.57150728,11.1338714 L11.0017125,14.1932436 L11.0017125,14.1932436 C11.3261914,14.4713683 11.3725455,14.9349096 11.0944207,15.2593884 C11.0017125,15.3984508 10.9090042,15.4448049 10.7235877,15.4911591 L6.22723767,16.7890746 C6.0881753,14.8422013 6.55171654,12.848974 7.57150728,11.1338714 L7.57150728,11.1338714 Z M6.78348716,18.9677184 L11.3725455,18.1796983 C11.7433785,18.1796983 12.1142115,18.4114689 12.1605656,18.7823019 C12.2069197,18.9213643 12.2069197,19.1067808 12.1142115,19.2458431 L12.1142115,19.2458431 L10.3527547,23.5104226 C8.73036039,22.4442777 7.4324449,20.8218834 6.78348716,18.9677184 L6.78348716,18.9677184 Z M17.3058734,24.7156298 C16.6569157,24.8546922 16.0079579,24.9474004 15.312646,24.9474004 C14.3392094,24.9474004 13.3194187,24.7619839 12.3923362,24.4838592 L14.6636883,20.3583421 C14.8954589,20.0802174 15.2662919,19.9875091 15.5907708,20.1729256 C15.7298332,20.2656339 15.8225414,20.3583421 15.9616038,20.4974045 L15.9616038,20.4974045 L18.1866018,24.5302133 C17.908477,24.5765674 17.6303523,24.6229216 17.3058734,24.7156298 L17.3058734,24.7156298 Z M22.9610766,20.682821 C22.2657647,21.79532 21.2923281,22.7687566 20.1798291,23.4640685 L18.3720183,19.1067808 C18.27931,18.7359478 18.4647265,18.3651148 18.7892054,18.2260524 C18.9282677,18.1796983 19.0673301,18.1333442 19.2063925,18.1333442 L23.8418049,18.9213643 C23.6100343,19.570322 23.3319096,20.1729256 22.9610766,20.682821 Z" transform="translate(9 9)"/></g></svg>