<svg xmlns="http://www.w3.org/2000/svg" width="46.124" height="43.381" viewBox="0 0 46.124 43.381"><defs><radialGradient id="a" cx="50%" cy="8.372%" r="84.452%" fx="50%" fy="8.372%"><stop offset="0%" stop-color="#2E4961"/><stop offset="100%" stop-color="#041C32"/></radialGradient><linearGradient id="b" x1="50%" x2="50%" y1="21.348%" y2="86.706%"><stop offset="0%" stop-color="#818C96" stop-opacity="0"/><stop offset="100%"/></linearGradient></defs><g fill="none" fill-rule="evenodd" transform="translate(-.938 -2.31)"><rect width="48" height="48"/><path fill="url(#a)" fill-rule="nonzero" stroke="url(#b)" d="M23.25,16.010363 C23.7141016,15.7424138 24.2858984,15.7424138 24.75,16.010363 L30.5442286,19.3556624 C30.7762794,19.489637 30.9637794,19.680422 31.0932667,19.9047005 C31.222754,20.1289791 31.2942286,20.3867513 31.2942286,20.6547005 L31.2942286,27.3452995 C31.2942286,27.6132487 31.222754,27.8710209 31.0932667,28.0952995 C30.9637794,28.319578 30.7762794,28.510363 30.5442286,28.6443376 L24.75,31.989637 C24.2858984,32.2575862 23.7141016,32.2575862 23.25,31.989637 L17.4557714,28.6443376 C17.2237206,28.510363 17.0362206,28.319578 16.9067333,28.0952995 C16.777246,27.8710209 16.7057714,27.6132487 16.7057714,27.3452995 L16.7057714,20.6547005 C16.7057714,20.3867513 16.777246,20.1289791 16.9067333,19.9047005 C17.0362206,19.680422 17.2237206,19.489637 17.4557714,19.3556624 Z"/><path fill="#D5EA48" fill-rule="nonzero" d="M24.5,18.2886751 L28.6961524,20.7113249 C29.0055535,20.8899577 29.1961524,21.2200847 29.1961524,21.5773503 L29.1961524,26.4226497 C29.1961524,26.7799153 29.0055535,27.1100423 28.6961524,27.2886751 L24.5,29.7113249 C24.1905989,29.8899577 23.8094011,29.8899577 23.5,29.7113249 L19.3038476,27.2886751 C18.9944465,27.1100423 18.8038476,26.7799153 18.8038476,26.4226497 L18.8038476,21.5773503 C18.8038476,21.2200847 18.9944465,20.8899577 19.3038476,20.7113249 L23.5,18.2886751 C23.8094011,18.1100423 24.1905989,18.1100423 24.5,18.2886751 Z"/><path fill="url(#a)" fill-rule="nonzero" stroke="url(#b)" d="M6.25 18.010363C6.71410162 17.7424138 7.28589838 17.7424138 7.75 18.010363L11.8121778 20.3556624C12.0442286 20.489637 12.2317286 20.680422 12.3612159 20.9047005 12.4907032 21.1289791 12.5621778 21.3867513 12.5621778 21.6547005L12.5621778 26.3452995C12.5621778 26.8811978 12.2762794 27.3763884 11.8121778 27.6443376L7.75 29.989637C7.28589838 30.2575862 6.71410162 30.2575862 6.25 29.989637L2.18782217 27.6443376C1.95577137 27.510363 1.76827137 27.319578 1.63878407 27.0952995 1.50929677 26.8710209 1.43782217 26.6132487 1.43782217 26.3452995L1.43782217 21.6547005C1.43782217 21.1188022 1.72372056 20.6236116 2.18782217 20.3556624ZM40.25 18.010363C40.7141016 17.7424138 41.2858984 17.7424138 41.75 18.010363L45.8121778 20.3556624C46.0442286 20.489637 46.2317286 20.680422 46.3612159 20.9047005 46.4907032 21.1289791 46.5621778 21.3867513 46.5621778 21.6547005L46.5621778 26.3452995C46.5621778 26.8811978 46.2762794 27.3763884 45.8121778 27.6443376L41.75 29.989637C41.2858984 30.2575862 40.7141016 30.2575862 40.25 29.989637L36.1878222 27.6443376C35.7237206 27.3763884 35.4378222 26.8811978 35.4378222 26.3452995L35.4378222 21.6547005C35.4378222 21.1188022 35.7237206 20.6236116 36.1878222 20.3556624ZM32.25 3.01036297C32.7141016 2.74241378 33.2858984 2.74241378 33.75 3.01036297L37.8121778 5.35566243C38.0442286 5.48963703 38.2317286 5.68042196 38.3612159 5.90470054 38.4907032 6.12897912 38.5621778 6.38675135 38.5621778 6.65470054L38.5621778 11.3452995C38.5621778 11.8811978 38.2762794 12.3763884 37.8121778 12.6443376L33.75 14.989637C33.2858984 15.2575862 32.7141016 15.2575862 32.25 14.989637L28.1878222 12.6443376C27.9557714 12.510363 27.7682714 12.319578 27.6387841 12.0952995 27.5092968 11.8710209 27.4378222 11.6132487 27.4378222 11.3452995L27.4378222 6.65470054C27.4378222 6.11880215 27.7237206 5.62361163 28.1878222 5.35566243ZM14.25 3.01036297C14.7141016 2.74241378 15.2858984 2.74241378 15.75 3.01036297L19.8121778 5.35566243C20.2762794 5.62361163 20.5621778 6.11880215 20.5621778 6.65470054L20.5621778 11.3452995C20.5621778 11.8811978 20.2762794 12.3763884 19.8121778 12.6443376L15.75 14.989637C15.2858984 15.2575862 14.7141016 15.2575862 14.25 14.989637L10.1878222 12.6443376C9.95577137 12.510363 9.76827137 12.319578 9.63878407 12.0952995 9.50929677 11.8710209 9.43782217 11.6132487 9.43782217 11.3452995L9.43782217 6.65470054C9.43782217 6.11880215 9.72372056 5.62361163 10.1878222 5.35566243ZM32.25 33.010363C32.7141016 32.7424138 33.2858984 32.7424138 33.75 33.010363L37.8121778 35.3556624C38.0442286 35.489637 38.2317286 35.680422 38.3612159 35.9047005 38.4907032 36.1289791 38.5621778 36.3867513 38.5621778 36.6547005L38.5621778 41.3452995C38.5621778 41.8811978 38.2762794 42.3763884 37.8121778 42.6443376L33.75 44.989637C33.2858984 45.2575862 32.7141016 45.2575862 32.25 44.989637L28.1878222 42.6443376C27.9557714 42.510363 27.7682714 42.319578 27.6387841 42.0952995 27.5092968 41.8710209 27.4378222 41.6132487 27.4378222 41.3452995L27.4378222 36.6547005C27.4378222 36.3867513 27.5092968 36.1289791 27.6387841 35.9047005 27.7682714 35.680422 27.9557714 35.489637 28.1878222 35.3556624ZM14.25 33.010363C14.7141016 32.7424138 15.2858984 32.7424138 15.75 33.010363L19.8121778 35.3556624C20.0442286 35.489637 20.2317286 35.680422 20.3612159 35.9047005 20.4907032 36.1289791 20.5621778 36.3867513 20.5621778 36.6547005L20.5621778 41.3452995C20.5621778 41.8811978 20.2762794 42.3763884 19.8121778 42.6443376L15.75 44.989637C15.2858984 45.2575862 14.7141016 45.2575862 14.25 44.989637L10.1878222 42.6443376C9.95577137 42.510363 9.76827137 42.319578 9.63878407 42.0952995 9.50929677 41.8710209 9.43782217 41.6132487 9.43782217 41.3452995L9.43782217 36.6547005C9.43782217 36.3867513 9.50929677 36.1289791 9.63878407 35.9047005 9.76827137 35.680422 9.95577137 35.489637 10.1878222 35.3556624Z"/></g></svg>