<svg xmlns="http://www.w3.org/2000/svg" width="48" height="48" viewBox="0 0 48 48"><defs><radialGradient id="a" cx="50%" cy="8.372%" r="84.452%" fx="50%" fy="8.372%"><stop offset="0%" stop-color="#2E4961"/><stop offset="100%" stop-color="#041C32"/></radialGradient><linearGradient id="b" x1="50%" x2="50%" y1="21.348%" y2="86.706%"><stop offset="0%" stop-color="#818C96" stop-opacity="0"/><stop offset="100%"/></linearGradient></defs><g fill="none" fill-rule="evenodd"><rect width="48" height="48"/><g fill-rule="nonzero"><circle cx="24" cy="24" r="23.5" fill="url(#a)" stroke="url(#b)" opacity=".478"/><circle cx="24" cy="24" r="19.5" fill="url(#a)" stroke="url(#b)"/><path fill="#D5EA48" d="M36.25,21.0833333 L34.08,21.0833333 C33.8603602,20.3387281 33.5631767,19.6192313 33.1933333,18.9366667 L34.7216667,17.3966667 C35.0544189,17.0718023 35.2398786,16.625013 35.235,16.16 C35.2385251,15.6952504 35.0532767,15.2489702 34.7216667,14.9233333 L33.0766667,13.2783333 C32.7500771,12.9477326 32.3047123,12.7616621 31.84,12.7616621 C31.3752877,12.7616621 30.9299229,12.9477326 30.6033333,13.2783333 L29.0633333,14.8183333 C28.3832726,14.4402767 27.6632966,14.1389824 26.9166667,13.92 L26.9166667,11.75 C26.9166667,10.7835017 26.133165,10 25.1666667,10 L22.8333333,10 C21.866835,10 21.0833333,10.7835017 21.0833333,11.75 L21.0833333,13.92 C20.3367034,14.1389824 19.6167274,14.4402767 18.9366667,14.8183333 L17.3966667,13.2783333 C17.0700771,12.9477326 16.6247123,12.7616621 16.16,12.7616621 C15.6952877,12.7616621 15.2499229,12.9477326 14.9233333,13.2783333 L13.2783333,14.9233333 C12.9467233,15.2489702 12.7614749,15.6952504 12.765,16.16 C12.757348,16.6255464 12.9432452,17.0733898 13.2783333,17.3966667 L14.8066667,18.9366667 C14.4368233,19.6192313 14.1396398,20.3387281 13.92,21.0833333 L11.75,21.0833333 C10.7835017,21.0833333 10,21.866835 10,22.8333333 L10,25.1666667 C10,26.133165 10.7835017,26.9166667 11.75,26.9166667 L13.92,26.9166667 C14.1375558,27.6620058 14.4348288,28.3817194 14.8066667,29.0633333 L13.2783333,30.6033333 C12.5959421,31.2865743 12.5959421,32.3934257 13.2783333,33.0766667 L14.9233333,34.7216667 C15.6141896,35.3854017 16.7058104,35.3854017 17.3966667,34.7216667 L18.9366667,33.1933333 C19.6182806,33.5651712 20.3379942,33.8624442 21.0833333,34.08 L21.0833333,36.25 C21.0833333,37.2164983 21.866835,38 22.8333333,38 L25.1666667,38 C26.133165,38 26.9166667,37.2164983 26.9166667,36.25 L26.9166667,34.08 C27.6620058,33.8624442 28.3817194,33.5651712 29.0633333,33.1933333 L30.6033333,34.7216667 C30.9299229,35.0522674 31.3752877,35.2383379 31.84,35.2383379 C32.3047123,35.2383379 32.7500771,35.0522674 33.0766667,34.7216667 L34.7216667,33.0766667 C35.4040579,32.3934257 35.4040579,31.2865743 34.7216667,30.6033333 L33.1933333,29.0633333 C33.5651712,28.3817194 33.8624442,27.6620058 34.08,26.9166667 L36.25,26.9166667 C37.2164983,26.9166667 38,26.133165 38,25.1666667 L38,22.8333333 C38,21.866835 37.2164983,21.0833333 36.25,21.0833333 Z M24,29.8333333 C20.778339,29.8333333 18.1666667,27.221661 18.1666667,24 C18.1666667,20.778339 20.778339,18.1666667 24,18.1666667 C27.221661,18.1666667 29.8333333,20.778339 29.8333333,24 C29.8333333,27.221661 27.221661,29.8333333 24,29.8333333 L24,29.8333333 Z"/></g></g></svg>